<svg xmlns="http://www.w3.org/2000/svg" width="414" height="460" viewBox="0 0 414 460">
  <g id="Group_569" data-name="Group 569" transform="translate(-301 -6899)">
    <rect id="Rectangle_226" data-name="Rectangle 226" width="414" height="455" rx="15" transform="translate(301 6899)" fill="#fff"/>
    <text id="So_how_much_can_I_make_selling_my_house_" data-name="So how much can I make selling my house?" transform="translate(325 6950)" fill="#1d1d1d" font-size="24" font-family="ProximaNova-Extrabld, Proxima Nova" letter-spacing="0.05em"><tspan x="32.348" y="22">So how much can I make </tspan><tspan x="74.912" y="52">selling my house?</tspan></text>
    <text id="Utilize_our_Net_Proceeds_Calculator_to_estimate_your_profit." data-name="Utilize our Net Proceeds Calculator to estimate your profit." transform="translate(354 7030)" fill="#1d1d1d" font-size="16" font-family="ProximaNova-Light, Proxima Nova" font-weight="300" letter-spacing="0.05em"><tspan x="8.56" y="15">Utilize our Net Proceeds Calculator to </tspan><tspan x="76.8" y="40">estimate your profit.</tspan></text>
    <path id="Rectangle_234" data-name="Rectangle 234" d="M15,0H311a15,15,0,0,1,15,15V214a0,0,0,0,1,0,0H0a0,0,0,0,1,0,0V15A15,15,0,0,1,15,0Z" transform="translate(345 7140)" fill="#193a52"/>
    <text id="Est_net_proceeds" data-name="Est net proceeds" transform="translate(345 7168)" fill="#beebfc" font-size="16" font-family="ProximaNova-Bold, Proxima Nova" font-weight="700" letter-spacing="0.05em"><tspan x="82.064" y="15">EST NET PROCEEDS</tspan></text>
    <text id="Home_sale_price" data-name="Home sale price" transform="translate(345 7272)" fill="#beebfc" font-size="11" font-family="ProximaNova-Bold, Proxima Nova" font-weight="700" letter-spacing="0.05em"><tspan x="111.63" y="10">HOME SALE PRICE</tspan></text>
    <text id="Total_cost_to_sell" data-name="Total cost to sell" transform="translate(345 7332)" fill="#beebfc" font-size="11" font-family="ProximaNova-Bold, Proxima Nova" font-weight="700" letter-spacing="0.05em"><tspan x="103.485" y="10">TOTAL COST TO SELL</tspan></text>
    <text id="_225_000" data-name="$225,000" transform="translate(345 7189)" fill="#fff" font-size="38" font-family="ProximaNova-Bold, Proxima Nova" font-weight="700" letter-spacing="0.05em"><tspan x="70.128" y="35">$225,000</tspan></text>
    <text id="_450_000" data-name="$450,000" transform="translate(345 7290)" fill="#fff" font-size="24" font-family="ProximaNova-Bold, Proxima Nova" font-weight="700" letter-spacing="0.05em"><tspan x="104.392" y="22">$450,000</tspan></text>
    <line id="Line_105" data-name="Line 105" x2="268" transform="translate(374.5 7240.5)" fill="none" stroke="#fff" stroke-width="0.25"/>
  </g>
</svg>
