<svg xmlns="http://www.w3.org/2000/svg" xmlns:xlink="http://www.w3.org/1999/xlink" width="75" height="75" viewBox="0 0 75 75">
  <defs>
    <clipPath id="clip-path">
      <rect id="Rectangle_238" data-name="Rectangle 238" width="42.941" height="42.941" fill="none"/>
    </clipPath>
  </defs>
  <g id="Group_578" data-name="Group 578" transform="translate(-837 -1830.982)">
    <circle id="Ellipse_5" data-name="Ellipse 5" cx="37.5" cy="37.5" r="37.5" transform="translate(837 1830.982)" fill="#193a52"/>
    <g id="Group_487" data-name="Group 487" transform="translate(852.641 1847.246)">
      <g id="Group_486" data-name="Group 486" clip-path="url(#clip-path)">
        <path id="Path_223" data-name="Path 223" d="M84.226,77.642A15.705,15.705,0,0,1,78.6,76.474a1.134,1.134,0,0,1,.9-2.081c.11.047,5.744,2.406,8.559-.353a2.858,2.858,0,0,0,.864-2.754c-.393-1.515-2.074-2.749-4.731-3.476-4.687-1.282-5.976-3.742-6.327-5.094a5.1,5.1,0,0,1,1.471-4.944c3.92-3.841,10.759-.94,11.048-.815a1.134,1.134,0,1,1-.9,2.081c-.056-.024-5.731-2.419-8.559.354a2.858,2.858,0,0,0-.864,2.754c.393,1.515,2.074,2.749,4.731,3.476,4.687,1.282,5.976,3.742,6.327,5.094a5.1,5.1,0,0,1-1.471,4.944,7.521,7.521,0,0,1-5.427,1.983" transform="translate(-63.027 -45.245)" fill="#fff"/>
        <path id="Path_224" data-name="Path 224" d="M108.737,37.064A1.134,1.134,0,0,1,107.6,35.93V31.024a1.134,1.134,0,1,1,2.268,0V35.93a1.134,1.134,0,0,1-1.134,1.134" transform="translate(-87.267 -24.241)" fill="#fff"/>
        <path id="Path_225" data-name="Path 225" d="M108.737,166.533A1.134,1.134,0,0,1,107.6,165.4v-4.906a1.134,1.134,0,0,1,2.268,0V165.4a1.134,1.134,0,0,1-1.134,1.134" transform="translate(-87.267 -129.241)" fill="#fff"/>
        <path id="Path_226" data-name="Path 226" d="M21.47,42.941a21.47,21.47,0,1,1,21.47-21.47,21.495,21.495,0,0,1-21.47,21.47m0-40.673a19.2,19.2,0,1,0,19.2,19.2,19.224,19.224,0,0,0-19.2-19.2" fill="#fff"/>
      </g>
    </g>
  </g>
</svg>
