<svg xmlns="http://www.w3.org/2000/svg" xmlns:xlink="http://www.w3.org/1999/xlink" width="75" height="75" viewBox="0 0 75 75">
  <defs>
    <clipPath id="clip-path">
      <rect id="Rectangle_245" data-name="Rectangle 245" width="51.008" height="47.364" fill="none"/>
    </clipPath>
  </defs>
  <g id="Group_585" data-name="Group 585" transform="translate(-951 -3141.78)">
    <circle id="Ellipse_11" data-name="Ellipse 11" cx="37.5" cy="37.5" r="37.5" transform="translate(951 3141.78)" fill="#193a52"/>
    <g id="Group_502" data-name="Group 502" transform="translate(962.996 3155.354)">
      <g id="Group_501" data-name="Group 501" clip-path="url(#clip-path)">
        <path id="Path_246" data-name="Path 246" d="M54.7,2.849a20.865,20.865,0,0,1,19.331,13.07.012.012,0,0,1-.008.016l-2.544.8a.726.726,0,0,0-.273,1.227l5.838,5.359a.726.726,0,0,0,1.2-.377l1.722-7.735a.726.726,0,0,0-.926-.85l-2.255.709a.012.012,0,0,1-.015-.007,23.7,23.7,0,0,0-44.689,1.57,1.428,1.428,0,0,0,1.366,1.847h0a1.429,1.429,0,0,0,1.363-1A20.871,20.871,0,0,1,54.7,2.849" transform="translate(-28.978 -0.001)" fill="#fff"/>
        <path id="Path_247" data-name="Path 247" d="M25.725,262.513A20.869,20.869,0,0,1,6.1,248.675a.012.012,0,0,1,.009-.016l2.451-.53a.726.726,0,0,0,.384-1.2l-5.28-5.821a.726.726,0,0,0-1.228.266l-2.4,7.484a.726.726,0,0,0,.844.931l2.39-.517a.012.012,0,0,1,.014.008A23.7,23.7,0,0,0,48.6,247.836a1.428,1.428,0,1,0-2.758-.743,20.87,20.87,0,0,1-20.119,15.42" transform="translate(0 -217.998)" fill="#fff"/>
      </g>
    </g>
  </g>
</svg>
