<svg xmlns="http://www.w3.org/2000/svg" xmlns:xlink="http://www.w3.org/1999/xlink" width="75" height="75" viewBox="0 0 75 75">
  <defs>
    <clipPath id="clip-path">
      <rect id="Rectangle_241" data-name="Rectangle 241" width="44.36" height="44.36" transform="translate(-3 -3)" fill="none" stroke="#fff" stroke-width="1"/>
    </clipPath>
  </defs>
  <g id="Group_581" data-name="Group 581" transform="translate(-926.111 -2459.962)">
    <circle id="Ellipse_9" data-name="Ellipse 9" cx="37.5" cy="37.5" r="37.5" transform="translate(926.111 2459.962)" fill="#193a52"/>
    <g id="Group_496" data-name="Group 496" transform="translate(944.432 2476.115)">
      <g id="Group_495" data-name="Group 495" clip-path="url(#clip-path)">
        <path id="Path_234" data-name="Path 234" d="M3.594,3.594A12.271,12.271,0,1,1,0,12.271,12.234,12.234,0,0,1,3.594,3.594m8.677-2.4A11.073,11.073,0,1,0,20.1,4.442,11.038,11.038,0,0,0,12.271,1.2" fill="#fff" stroke="#fff" stroke-width="1"/>
        <path id="Path_235" data-name="Path 235" d="M208.613,212.842l4.231-4.231h0a.6.6,0,0,1,.848,0l0,0,11.155,11.155a.588.588,0,0,1,.051.058.873.873,0,0,1-.051,1.181l-.245-.243h0l.246.245,0,0-3.837,3.837a.876.876,0,0,1-1.239,0l.422-.424-.424.424,0,0-11.155-11.155a.6.6,0,0,1,0-.848Zm4.655-2.96-3.386,3.386,10.507,10.507,3.386-3.386Z" transform="translate(-186.746 -186.746)" fill="#fff" stroke="#fff" stroke-width="1"/>
        <path id="Path_236" data-name="Path 236" d="M194.018,195.944a.6.6,0,0,0-.848.848l3.579,3.579a.6.6,0,1,0,.848-.848Z" transform="translate(-172.912 -175.397)" fill="#fff" stroke="#fff" stroke-width="1"/>
        <path id="Path_237" data-name="Path 237" d="M167.071,64.6a.6.6,0,1,0-1.2,0V74.621a.6.6,0,1,0,1.2,0Z" transform="translate(-148.612 -57.338)" fill="#fff" stroke="#fff" stroke-width="1"/>
        <path id="Path_238" data-name="Path 238" d="M131.268,89.333a.6.6,0,0,0-1.2,0v7.451a.6.6,0,0,0,1.2,0Z" transform="translate(-116.534 -79.501)" fill="#fff" stroke="#fff" stroke-width="1"/>
        <path id="Path_239" data-name="Path 239" d="M95.466,108.861a.6.6,0,1,0-1.2,0v5.419a.6.6,0,0,0,1.2,0Z" transform="translate(-84.458 -96.997)" fill="#fff" stroke="#fff" stroke-width="1"/>
        <path id="Path_240" data-name="Path 240" d="M59.663,124.484a.6.6,0,1,0-1.2,0v3.793a.6.6,0,0,0,1.2,0Z" transform="translate(-52.38 -110.994)" fill="#fff" stroke="#fff" stroke-width="1"/>
      </g>
    </g>
  </g>
</svg>
