<svg xmlns="http://www.w3.org/2000/svg" xmlns:xlink="http://www.w3.org/1999/xlink" width="75" height="75" viewBox="0 0 75 75">
  <defs>
    <clipPath id="clip-path">
      <rect id="Rectangle_237" data-name="Rectangle 237" width="36.939" height="31.158" fill="none"/>
    </clipPath>
  </defs>
  <g id="Group_576" data-name="Group 576" transform="translate(-608 -1831.469)">
    <circle id="Ellipse_3" data-name="Ellipse 3" cx="37.5" cy="37.5" r="37.5" transform="translate(608 1831.469)" fill="#193a52"/>
    <g id="Group_485" data-name="Group 485" transform="translate(627 1853.247)">
      <g id="Group_484" data-name="Group 484" transform="translate(0 0)" clip-path="url(#clip-path)">
        <path id="Path_222" data-name="Path 222" d="M.328,30.751a1.252,1.252,0,0,0,1.391.316l8.442-3.4a21.08,21.08,0,0,0,8.807,1.89c9.909,0,17.971-6.63,17.971-14.779S28.878,0,18.969,0,1,6.63,1,14.779a12.83,12.83,0,0,0,2.628,7.7L.136,29.338a1.252,1.252,0,0,0,.192,1.414M3.5,14.779C3.5,8.01,10.441,2.5,18.969,2.5S34.435,8.01,34.435,14.779,27.5,27.054,18.969,27.054a18.454,18.454,0,0,1-8.205-1.874c-.01-.005-.021-.007-.031-.012a1.3,1.3,0,0,0-.133-.05c-.034-.011-.068-.024-.1-.032a1.177,1.177,0,0,0-.125-.02c-.039-.005-.077-.012-.116-.013s-.079,0-.118,0a1.169,1.169,0,0,0-.125.01c-.036.005-.07.016-.106.024a1.305,1.305,0,0,0-.135.039c-.011,0-.022.005-.033.009L3.883,27.5,6.21,22.928a1.246,1.246,0,0,0,.1-.253c0-.012,0-.025.007-.037a1.286,1.286,0,0,0,.035-.2c0-.025,0-.049,0-.074a1.223,1.223,0,0,0,0-.168c0-.025-.011-.05-.015-.075a1.247,1.247,0,0,0-.036-.16c-.009-.029-.024-.056-.035-.085a.952.952,0,0,0-.17-.3c-.009-.012-.015-.025-.025-.036l0,0,0,0A10.494,10.494,0,0,1,3.5,14.779" transform="translate(0 0)" fill="#fff"/>
      </g>
    </g>
  </g>
</svg>
