<svg xmlns="http://www.w3.org/2000/svg" xmlns:xlink="http://www.w3.org/1999/xlink" width="75" height="75" viewBox="0 0 75 75">
  <defs>
    <clipPath id="clip-path">
      <rect id="Rectangle_242" data-name="Rectangle 242" width="46.054" height="27.628" fill="none" stroke="#fff" stroke-width="1"/>
    </clipPath>
  </defs>
  <g id="Group_580" data-name="Group 580" transform="translate(-812.11 -2459.962)">
    <circle id="Ellipse_10" data-name="Ellipse 10" cx="37.5" cy="37.5" r="37.5" transform="translate(812.11 2459.962)" fill="#193a52"/>
    <g id="Group_498" data-name="Group 498" transform="translate(825.584 2483.648)">
      <g id="Group_497" data-name="Group 497" clip-path="url(#clip-path)">
        <path id="Path_241" data-name="Path 241" d="M.624,362.459a.625.625,0,0,1-.434-1.073l17.418-16.828a.623.623,0,0,1,.817-.044l9.356,7.283a.624.624,0,0,1-.767.985l-8.928-6.95L1.058,362.283a.621.621,0,0,1-.434.176" transform="translate(0 -334.831)" fill="#fff" stroke="#fff" stroke-width="1" fill-rule="evenodd"/>
        <path id="Path_242" data-name="Path 242" d="M965.942,18.083a.625.625,0,0,1-.434-1.073L982.926.182a.624.624,0,0,1,.868.9L966.376,17.908a.623.623,0,0,1-.434.176" transform="translate(-938.544 0)" fill="#fff" stroke="#fff" stroke-width="1" fill-rule="evenodd"/>
        <path id="Path_243" data-name="Path 243" d="M1195.68,11.377a.624.624,0,0,1-.623-.586l-.576-9.261-10.772.5a.624.624,0,0,1-.059-1.247l11.386-.533a.618.618,0,0,1,.652.585l.614,9.874a.625.625,0,0,1-.623.663" transform="translate(-1150.25 -0.248)" fill="#fff" stroke="#fff" stroke-width="1" fill-rule="evenodd"/>
      </g>
    </g>
  </g>
</svg>
