<svg xmlns="http://www.w3.org/2000/svg" xmlns:xlink="http://www.w3.org/1999/xlink" width="26.373" height="20.513" viewBox="0 0 26.373 20.513">
  <defs>
    <clipPath id="clip-path">
      <rect id="Rectangle_183" data-name="Rectangle 183" width="20.013" height="13.081" fill="none"/>
    </clipPath>
  </defs>
  <g id="Group_459" data-name="Group 459" transform="translate(-1154 -1700)">
    <circle id="Ellipse_2" data-name="Ellipse 2" cx="10.256" cy="10.256" r="10.256" transform="translate(1159.861 1700)" fill="#d30200" opacity="0.458"/>
    <g id="Group_456" data-name="Group 456" transform="translate(1154 1703.017)">
      <g id="Group_316" data-name="Group 316" transform="translate(0 0)" clip-path="url(#clip-path)">
        <path id="Path_17" data-name="Path 17" d="M18.8,5.429H.983a.733.733,0,0,1,0-1.465H18.8a.733.733,0,0,1,0,1.465" transform="translate(0.116 1.844)" fill="#1d1d1d"/>
        <path id="Path_18" data-name="Path 18" d="M18.8,5.429H.983a.733.733,0,0,1,0-1.465H18.8a.733.733,0,0,1,0,1.465Z" transform="translate(0.116 1.844)" fill="none" stroke="#1d1d1d" stroke-miterlimit="10" stroke-width="0.5"/>
        <path id="Path_19" data-name="Path 19" d="M9.426,12.6a.733.733,0,0,1-.519-1.251l4.926-4.923L8.907,1.5A.733.733,0,0,1,9.944.465l5.442,5.442a.73.73,0,0,1,0,1.036L9.944,12.385a.736.736,0,0,1-.519.214" transform="translate(4.044 0.117)" fill="#1d1d1d"/>
        <path id="Path_20" data-name="Path 20" d="M9.426,12.6a.733.733,0,0,1-.519-1.251l4.926-4.923L8.907,1.5A.733.733,0,0,1,9.944.465l5.442,5.442a.73.73,0,0,1,0,1.036L9.944,12.385A.736.736,0,0,1,9.426,12.6Z" transform="translate(4.044 0.117)" fill="none" stroke="#1d1d1d" stroke-miterlimit="10" stroke-width="0.5"/>
      </g>
    </g>
  </g>
</svg>
